<svg xmlns="http://www.w3.org/2000/svg" width="400" height="400" viewBox="0 0 400 400"><circle cx="200" cy="200" r="200" fill="#3b3c45"/><circle cx="200" cy="200" r="184" fill="#f0f2f3"/><linearGradient id="a" gradientUnits="userSpaceOnUse" x1="200" y1="272" x2="200" y2="24"><stop offset="0" stop-color="#616db3"/><stop offset="1" stop-color="#21abc7"/></linearGradient><path d="M360.6 272c9.9-22 15.4-46.3 15.4-72 0-97.2-78.8-176-176-176S24 102.8 24 200c0 25.7 5.5 50 15.4 72h321.2z" fill="url(#a)"/><g fill="#f0f2f3"><path d="M68.1 132.5c-.4.8-.4 1.6 0 2.4.4.8 1.3 1.5 2.4 2.1 2.5 1.2 4.2.9 5.1-1 .3-.6.5-1.2.6-1.8.1-.6.2-1.2.2-1.9l2.9 1.5c-.1 1.3-.4 2.6-1.1 4-1 1.9-2.3 3.1-3.9 3.6s-3.5.2-5.6-.9c-1.3-.7-2.4-1.5-3.1-2.5s-1.2-2.1-1.2-3.3c-.1-1.2.2-2.4.8-3.7.7-1.4 1.7-2.5 2.9-3.5l2.2 2.4c-.5.4-.9.7-1.3 1.1-.3.5-.7.9-.9 1.5zM83.1 115.5c2 1.3 3.2 2.8 3.6 4.5.4 1.7 0 3.5-1.3 5.4-1.2 1.9-2.7 3-4.4 3.3-1.7.3-3.6-.2-5.6-1.5-2-1.3-3.2-2.8-3.6-4.5s0-3.5 1.3-5.4c1.2-1.9 2.7-3 4.4-3.3 1.8-.3 3.6.2 5.6 1.5zm-5.3 8.2c2.3 1.5 4 1.5 5-.1.5-.8.6-1.6.3-2.4-.3-.8-1-1.5-2.2-2.3-1.2-.8-2.2-1.2-3-1.1s-1.5.4-2 1.2c-1.1 1.7-.5 3.2 1.9 4.7zM93.5 102.4c1.8 1.5 2.8 3.2 3 5 .1 1.8-.5 3.7-2.1 5.5l-3 3.5-10.9-9.2 3.2-3.8c1.5-1.8 3.1-2.7 4.8-2.9s3.3.5 5 1.9zm-2.5 3.2c-1-.8-1.9-1.3-2.7-1.3s-1.6.4-2.2 1.2l-.7.9 6.1 5.1.6-.7c.8-.9 1-1.8.9-2.6-.3-.9-.9-1.7-2-2.6zM108 98.6l-6.1 5.9L92 94.2l6.1-5.9 2.2 2.2-3.3 3.2 1.6 1.6 3.1-3 2.2 2.2-3.1 3 1.9 1.9 3.3-3.2 2 2.4zM121.2 82.7c.5.7.8 1.5.8 2.3 0 .8-.2 1.6-.6 2.4-.5.8-1.2 1.5-2.1 2.2-.8.6-1.5 1-2.1 1.2-.6.3-1.3.5-2 .6l-2-2.8c.8-.1 1.6-.3 2.4-.6.8-.3 1.4-.6 2-1 .5-.3.7-.7.8-1 .1-.3.1-.6-.1-.9-.1-.2-.3-.3-.4-.3s-.4-.1-.7-.1-1 .1-2.1.4c-1 .2-1.8.3-2.4.2-.6 0-1.2-.2-1.6-.5-.5-.3-.9-.7-1.3-1.3-.8-1.1-1-2.2-.6-3.3.3-1.2 1.2-2.2 2.5-3.2 1.2-.9 2.6-1.5 4.3-1.8l.8 3.1c-1.4.3-2.6.7-3.3 1.3-.4.3-.6.6-.7.9-.1.3 0 .5.1.7.2.2.4.3.8.4.4 0 1.2-.1 2.6-.4 1.3-.3 2.4-.3 3.1-.1.6.3 1.2.8 1.8 1.6zM126.4 71.3c-.8.5-1.2 1.1-1.3 2.1-.1.9.2 1.9.9 3.1 1.4 2.4 3 3 4.8 2 .5-.3 1-.7 1.5-1.2.4-.5.8-.9 1.2-1.5l1.6 2.8c-.8 1.1-1.8 2-3.1 2.7-1.9 1.1-3.6 1.4-5.2.9s-3-1.8-4.2-3.8c-.7-1.3-1.2-2.5-1.2-3.8-.1-1.2.2-2.4.8-3.4.6-1 1.5-1.9 2.7-2.6 1.3-.8 2.8-1.2 4.3-1.4l.5 3.2c-.6.1-1.1.1-1.7.3-.5.1-1 .3-1.6.6zM150.2 72.3l-3.5 1.6-2.4-5.3-4.1 1.8 2.4 5.3-3.5 1.6-5.8-13.1 3.5-1.6 2.1 4.8 4.1-1.8-2.1-4.8 3.5-1.6 5.8 13.1zM164.9 60.1c.7 2.3.7 4.2-.1 5.8-.8 1.5-2.2 2.6-4.4 3.3-2.1.6-4 .5-5.5-.3-1.5-.9-2.6-2.4-3.3-4.7-.7-2.3-.6-4.2.1-5.7.8-1.5 2.2-2.6 4.4-3.3 2.2-.7 4-.6 5.5.3 1.5.7 2.6 2.3 3.3 4.6zm-9.4 2.9c.8 2.6 2.1 3.7 4 3.1.9-.3 1.5-.8 1.8-1.6.3-.8.2-1.8-.2-3.2-.4-1.4-.9-2.3-1.6-2.8-.7-.5-1.4-.6-2.3-.4-2 .6-2.5 2.2-1.7 4.9zM182.5 56.9c.4 2.4.1 4.3-.8 5.7-1 1.4-2.5 2.3-4.8 2.7-2.2.4-4 0-5.4-1-1.4-1-2.3-2.7-2.7-5.1-.4-2.3-.1-4.2.8-5.7 1-1.4 2.6-2.3 4.8-2.7 2.2-.4 4-.1 5.4 1s2.3 2.7 2.7 5.1zm-9.7 1.6c.5 2.7 1.6 3.9 3.5 3.6 1-.2 1.6-.6 2-1.4s.4-1.8.2-3.2c-.2-1.4-.7-2.4-1.2-3-.6-.6-1.3-.8-2.3-.6-1.9.3-2.6 1.9-2.2 4.6zM187.5 63.6l-.8-14.3 3.9-.2.7 11.1 5.5-.3.2 3.1-9.5.6zM215.8 64l-8.4-.7 1.2-14.2 8.4.7-.2 3.1-4.6-.4-.2 2.2 4.3.3-.3 3.1-4.3-.3-.2 2.7 4.6.4-.3 3.1zM232.8 66.9l-5-1-3.2-10.9h-.1c-.2 1.6-.3 2.8-.5 3.6l-1.2 6.3-3.4-.6 2.7-14 4.9 1 3.2 10.7h.1c.2-1.4.4-2.6.5-3.4l1.2-6.3 3.4.7-2.6 13.9zM242.2 64.3l-1.6 4.9-3.7-1.2 4.4-13.6 4.5 1.4c3.7 1.2 5.1 3.1 4.3 5.8-.5 1.6-1.7 2.5-3.5 2.9l2.1 7.2-4.2-1.3-1.3-5.9-1-.2zm.9-2.8l.7.2c1.3.4 2.1.1 2.5-1.1.3-.9-.2-1.6-1.4-2l-.7-.2-1.1 3.1zM266 71.8c-1 2.2-2.3 3.6-3.9 4.3-1.6.6-3.4.5-5.5-.4-2-.9-3.3-2.2-3.9-3.9-.6-1.6-.4-3.6.6-5.7 1-2.2 2.3-3.6 3.9-4.2 1.6-.6 3.4-.5 5.5.4s3.4 2.2 3.9 3.8c.6 1.6.4 3.5-.6 5.7zm-9-4.1c-1.1 2.5-.8 4.2.9 5 .9.4 1.7.4 2.4 0s1.4-1.3 1.9-2.6c.6-1.3.8-2.4.7-3.2-.2-.8-.7-1.4-1.5-1.8-1.7-.8-3.2.1-4.4 2.6zM266.3 80.2l7.3-12.3 3.3 2-5.7 9.6 4.7 2.8-1.6 2.7-8-4.8zM277.4 87l8.4-11.5 3.1 2.3-6.6 9 4.4 3.2-1.8 2.5-7.5-5.5zM292.2 98.8l4.9-9.5-.1-.1c-1.1 1.4-2 2.4-2.6 3.1l-4.2 4.5-2.5-2.3 9.8-10.4 3.7 3.5-4.8 9.4.1.1 9.1-5.4 3.8 3.5-9.8 10.4-2.6-2.4 4.3-4.6.8-.8c.3-.3 1-1 2.1-2l-.1-.1-9.1 5.5-2.8-2.4zM307.7 115.4l-5.5-6.5 10.9-9.2 5.5 6.5-2.4 2-3-3.5-1.7 1.4 2.8 3.3-2.4 2-2.8-3.3-2.1 1.7 3 3.5-2.3 2.1zM317.6 129.6l-2.8-4.2 5.5-9.9v-.1c-1.2 1-2.2 1.7-2.9 2.2l-5.3 3.6-1.9-2.8 11.9-7.9 2.8 4.2-5.4 9.8c1.1-.9 2.1-1.6 2.8-2l5.4-3.6 1.9 2.9-12 7.8zM322.6 139l-1.8-3.4 9.9-5.1-1.6-3.1 2.8-1.4 5 9.6-2.9 1.4-1.6-3.1-9.8 5.1z"/></g><path d="M33.1 256c23.4 69.7 89.3 120 166.9 120s143.5-50.3 166.9-120H33.1z" fill="#21abc7"/><circle cx="200" cy="200" r="112" fill="#f0f2f3"/><linearGradient id="b" gradientUnits="userSpaceOnUse" x1="200" y1="304" x2="200" y2="96"><stop offset="0" stop-color="#25262e"/><stop offset="1" stop-color="#3b3c45"/></linearGradient><circle cx="200" cy="200" r="104" fill="url(#b)"/><path d="M200 112c54.7 0 99.6 42.3 103.7 96 .2-2.6.3-5.3.3-8 0-57.4-46.6-104-104-104S96 142.6 96 200c0 2.7.1 5.4.3 8 4.1-53.7 49-96 103.7-96z" fill="#25262e"/><linearGradient id="c" gradientUnits="userSpaceOnUse" x1="200" y1="256" x2="200" y2="192"><stop offset="0" stop-color="#59bc69"/><stop offset="1" stop-color="#c0d84d"/></linearGradient><path d="M200 192c-35.3 0-64 28.7-64 64h128c0-35.3-28.7-64-64-64z" fill="url(#c)"/><path d="M200 192c-2.7 0-5.4.2-8 .5 31.6 3.9 56 30.8 56 63.5h16c0-35.3-28.7-64-64-64z" fill="#59bc69"/><linearGradient id="d" gradientUnits="userSpaceOnUse" x1="200" y1="192" x2="200" y2="120"><stop offset="0" stop-color="#59bc69"/><stop offset="1" stop-color="#c0d84d"/></linearGradient><circle cx="200" cy="156" r="36" fill="url(#d)"/><path d="M221.1 126.9c4.3 5.9 6.9 13.2 6.9 21.1 0 19.9-16.1 36-36 36-7.9 0-15.2-2.6-21.1-6.9 6.5 9 17.2 14.9 29.1 14.9 19.9 0 36-16.1 36-36 0-12-5.9-22.6-14.9-29.1z" fill="#59bc69"/><circle cx="188" cy="148" r="8" fill="#c0d84d"/><path d="M110 256c18.7 30 52 50 90 50s71.3-20 90-50H110z" fill="#f0f2f3"/><g><path d="M78.3 280.1c1.1-.8 2.5-.4 3.2.6.7 1.1.5 2.5-.6 3.2-1.1.7-2.5.5-3.2-.6-.7-1-.5-2.4.6-3.2z" fill="#616db3"/><path d="M105.8 309.2c-1.8 1.9-3.7 2.9-5.6 3-1.9.1-3.7-.7-5.5-2.5-1.8-1.7-2.7-3.5-2.7-5.4 0-1.9.9-3.8 2.8-5.7 1.8-1.9 3.7-2.9 5.6-3 1.9-.1 3.7.7 5.5 2.5 1.8 1.7 2.7 3.5 2.7 5.4 0 1.8-1 3.7-2.8 5.7zm-7.8-7.5c-2.1 2.2-2.4 4-.9 5.5.8.7 1.6 1 2.5.9.9-.2 1.9-.8 3-1.9 1.1-1.1 1.7-2.1 1.8-3.1s-.2-1.7-.9-2.4c-1.6-1.6-3.4-1.2-5.5 1zM108.3 321.1l-3.3-2.5 9.5-12.5 7.4 5.6-2.1 2.7-4.1-3.1-1.8 2.4 3.8 2.8-2.1 2.7-3.8-2.8-3.5 4.7zM120.6 329.4l-3.6-2.2 8.2-13.4 7.9 4.9-1.8 2.9-4.3-2.6-1.6 2.6 4 2.5-1.8 2.9-4-2.5-3 4.9zM129.7 334.7l7.1-14 3.8 1.9-7.1 14-3.8-1.9zM150.3 330.3c-.9-.4-1.8-.3-2.7.3-.8.6-1.5 1.5-2 2.9-1.1 2.8-.6 4.6 1.5 5.5.6.3 1.3.4 2 .5s1.4.1 2.1.1l-1.3 3.3c-1.4.1-2.9-.2-4.5-.8-2.2-.9-3.6-2.2-4.3-3.9-.7-1.7-.5-3.8.4-6.2.6-1.5 1.4-2.7 2.4-3.7 1-.9 2.2-1.5 3.5-1.7s2.7 0 4.1.6c1.6.6 3 1.6 4.1 2.8l-2.4 2.6c-.4-.5-.9-.9-1.4-1.3-.3-.4-.9-.8-1.5-1zM155.4 345.2l4.4-15.1 4.1 1.2-4.4 15.1-4.1-1.2zM175.1 349.9l-.2-3-5-.9-1.3 2.7-4.6-.9 7.9-14.6 5.6 1 2.2 16.5-4.6-.8zm-.5-6.7l-.2-2.7c0-.6-.1-1.4-.2-2.3s-.1-1.6-.1-2c-.1.3-.4.9-.7 1.7-.3.8-1.1 2.3-2.2 4.6l3.4.7zM184.4 351.1l1.1-15.7 4.2.3-.9 12.2 6 .4-.2 3.4-10.2-.6zM218.4 346.1c.1 1-.1 1.9-.5 2.6-.4.8-1.1 1.4-2 1.9-.9.5-2 .8-3.2.9-1 .1-1.9.1-2.6 0-.7-.1-1.5-.3-2.3-.6l-.3-3.8c.8.3 1.7.6 2.6.8.9.2 1.7.2 2.4.1.6-.1 1.1-.2 1.4-.4.3-.2.4-.5.4-.9 0-.2-.1-.4-.2-.5s-.3-.3-.6-.4-1-.4-2.2-.8c-1.1-.4-1.9-.8-2.4-1.2-.5-.4-1-.9-1.3-1.4-.3-.5-.5-1.2-.5-2-.1-1.4.3-2.6 1.3-3.5 1-.9 2.4-1.4 4.2-1.6 1.6-.1 3.3.1 5.1.7l-1 3.4c-1.5-.5-2.8-.8-3.9-.7-.5 0-.9.2-1.2.4-.2.2-.3.5-.3.8 0 .3.2.6.5.8.3.2 1.2.6 2.7 1.1 1.4.5 2.4 1.1 3 1.7.5.6.8 1.5.9 2.6zM231 348.7l-4.2.8-2.3-12-3.8.7-.7-3.4 11.7-2.3.7 3.4-3.8.7 2.4 12.1zM247.9 327.6l2.9 9c.6 2 .6 3.7-.2 5.1-.8 1.4-2.2 2.5-4.3 3.1-2 .7-3.8.6-5.2-.1s-2.5-2-3.1-4l-2.9-9.1 4.1-1.3 2.8 8.8c.3 1.1.8 1.8 1.3 2.1.5.4 1.2.4 2 .2.8-.3 1.3-.7 1.6-1.3.2-.6.2-1.4-.2-2.5l-2.8-8.8 4-1.2zM267.4 327.1c1.1 2.4 1.3 4.5.6 6.4s-2.2 3.4-4.6 4.5l-4.6 2.2-6.7-14.2 4.9-2.3c2.3-1.1 4.3-1.3 6.1-.7 1.8.5 3.2 1.9 4.3 4.1zm-3.9 2c-.6-1.3-1.3-2.1-2.1-2.5-.8-.4-1.7-.3-2.8.2l-1.1.5 3.7 8 .9-.4c1.2-.5 1.9-1.3 2.1-2.2.1-1-.1-2.2-.7-3.6zM283.9 326.7l-7.9 4.9-8.3-13.4 7.9-4.9 1.8 2.9-4.3 2.7 1.3 2.1 4-2.5 1.8 2.9-4 2.5 1.6 2.5 4.3-2.7 1.8 3zM300.5 314.1l-4.3 3.5-11.4-5.1-.1.1c1.2 1.3 2.1 2.3 2.6 3l4.4 5.5-2.9 2.3-9.8-12.3 4.3-3.5 11.3 5c-1.1-1.2-1.9-2.1-2.5-2.9l-4.4-5.5 3-2.4 9.8 12.3zM310.1 304.6l-3 3-8.8-8.5-2.7 2.7-2.5-2.4 8.3-8.5 2.5 2.4-2.7 2.7 8.9 8.6z" fill="#f0f2f3"/><path d="M320.5 282c-1.1-.7-1.4-2.1-.7-3.2s2.1-1.4 3.2-.7 1.4 2.1.7 3.2c-.8 1.1-2.2 1.4-3.2.7z" fill="#616db3"/></g><g><g fill="#21abc7"><path d="M321.5 219.2s-4.9 20.6 11 21.6c8.6-13.4-11-21.6-11-21.6z"/><path d="M323.8 204.7s-1.4 21.1 14.4 19.5c6.2-14.7-14.4-19.5-14.4-19.5z"/><path d="M322.7 189.1s1.3 21.1 16.8 17.5c4.2-15.3-16.8-17.5-16.8-17.5z"/><path d="M320 171.9s1.5 21.1 16.9 17.3c4.2-15.3-16.9-17.3-16.9-17.3zM354.6 219.4s-21.1 1.9-17 17.3c15.5 3.8 17-17.3 17-17.3z"/><path d="M356.1 201s-20.6 4.9-14.4 19.5c15.8 1.6 14.4-19.5 14.4-19.5z"/><path d="M355 183.2s-20.1 6.7-12.6 20.7c15.9.2 12.6-20.7 12.6-20.7z"/><path d="M349.6 165.2s-18.4 10.5-8.3 22.8c15.6-2.9 8.3-22.8 8.3-22.8z"/><path d="M332.8 152s-11.5 17.8 3.2 24c12.5-9.8-3.2-24-3.2-24z"/></g></g><g><g fill="#21abc7"><path d="M78.5 219.2s4.9 20.6-11 21.6c-8.6-13.4 11-21.6 11-21.6z"/><path d="M76.2 204.7s1.4 21.1-14.4 19.5c-6.2-14.7 14.4-19.5 14.4-19.5z"/><path d="M77.3 189.1s-1.3 21.1-16.8 17.5c-4.2-15.3 16.8-17.5 16.8-17.5z"/><path d="M80 171.9s-1.5 21.1-16.9 17.3C58.9 173.9 80 171.9 80 171.9zM45.4 219.4s21.1 1.9 17 17.3c-15.5 3.8-17-17.3-17-17.3z"/><path d="M43.9 201s20.6 4.9 14.4 19.5C42.5 222.1 43.9 201 43.9 201z"/><path d="M45 183.2s20.1 6.7 12.6 20.7c-15.9.2-12.6-20.7-12.6-20.7z"/><path d="M50.4 165.2s18.4 10.5 8.3 22.8c-15.6-2.9-8.3-22.8-8.3-22.8zM67.2 152s11.5 17.8-3.2 24c-12.5-9.8 3.2-24 3.2-24z"/></g></g><g><circle cx="200" cy="272" r="32" fill="#f0f2f3"/><linearGradient id="e" gradientUnits="userSpaceOnUse" x1="209.379" y1="249.5" x2="209.379" y2="296.011"><stop offset="0" stop-color="#21abc7"/><stop offset="1" stop-color="#616db3"/></linearGradient><path fill="url(#e)" d="M202.6 259.2v6.2l7 6.6-7 6.6v6.2l13.5-12.8z"/><linearGradient id="f" gradientUnits="userSpaceOnUse" x1="190.621" y1="249.5" x2="190.621" y2="296.011"><stop offset="0" stop-color="#21abc7"/><stop offset="1" stop-color="#616db3"/></linearGradient><path fill="url(#f)" d="M197.4 278.6l-7-6.6 7-6.6v-6.2L183.9 272l13.5 12.8z"/><linearGradient id="g" gradientUnits="userSpaceOnUse" x1="200" y1="249.5" x2="200" y2="296.011"><stop offset="0" stop-color="#21abc7"/><stop offset="1" stop-color="#616db3"/></linearGradient><path d="M200 248c-13.3 0-24 10.7-24 24s10.7 24 24 24 24-10.7 24-24-10.7-24-24-24zm0 43.7c-10.9 0-19.7-8.8-19.7-19.7s8.8-19.7 19.7-19.7c10.9 0 19.7 8.8 19.7 19.7s-8.8 19.7-19.7 19.7z" fill="url(#g)"/></g></svg>